# xmcd
#
# Track frame offsets:
#	150
#	20512
#	34261
#	51534
#	67670
#	85959
#	103068
#	119492
#	142412
#	155036
#	175950
#	187530
#	203373
#	221898
#
# Disc length: 3209 seconds
# Revision: 1
# Processed by: cddbd v1.5.2PL0 Copyright (c) Steve Scherf et al.
# Submitted via: dBpowerAMP V12.0
#
DISCID=cc0c870e
DTITLE=Tommy Alverson - Country To The Bone
DYEAR=2007
DGENRE=Country
TTITLE0=Country to the Bone
TTITLE1=Be Real
TTITLE2=Got Here Fast as I Could
TTITLE3=I Can't Convince My Heart
TTITLE4=Just Like Hank
TTITLE5=She Found Something in Me
TTITLE6=This Buzz Is for You
TTITLE7=Second Hand Love
TTITLE8=I'll Still Be Around
TTITLE9=Tequila Rose
TTITLE10=She Even Woke Me Up to Say Good Bye
TTITLE11=Upside Down
TTITLE12=Welcome to Paradise
TTITLE13=Texas Woman
EXTD=
EXTT0=
EXTT1=
EXTT2=
EXTT3=
EXTT4=
EXTT5=
EXTT6=
EXTT7=
EXTT8=
EXTT9=
EXTT10=
EXTT11=
EXTT12=
EXTT13=
PLAYORDER=
